<?xml version="1.0" standalone="no"?>
<!DOCTYPE svg PUBLIC "-//W3C//DTD SVG 20010904//EN"
 "http://www.w3.org/TR/2001/REC-SVG-20010904/DTD/svg10.dtd">
<svg version="1.0" xmlns="http://www.w3.org/2000/svg"
 width="512.000000pt" height="512.000000pt" viewBox="0 0 512.000000 512.000000"
 preserveAspectRatio="xMidYMid meet">

<g transform="translate(0.000000,512.000000) scale(0.100000,-0.100000)"
fill="#000000" stroke="none">
<path d="M25 4135 l-25 -24 0 -1231 0 -1231 25 -24 24 -25 1111 0 1111 0 24
25 c33 32 33 78 0 110 l-24 25 -1056 0 -1055 0 0 1120 0 1120 2160 0 2160 0 0
-495 0 -496 25 -24 c32 -33 78 -33 110 0 l25 24 0 551 0 551 -25 24 -24 25
-2271 0 -2271 0 -24 -25z"/>
<path d="M665 3815 c-16 -15 -25 -35 -25 -56 0 -122 -117 -239 -239 -239 -21
0 -41 -9 -56 -25 l-25 -24 0 -591 0 -591 25 -24 c15 -16 35 -25 56 -25 122 0
239 -117 239 -239 0 -21 9 -41 25 -56 l24 -25 791 0 791 0 24 25 c33 32 33 78
0 110 l-24 25 -741 0 c-585 0 -740 3 -740 13 0 28 -62 139 -101 181 -39 43
-163 116 -195 116 -12 0 -14 83 -14 490 0 407 2 490 14 490 32 0 156 73 195
116 39 42 101 153 101 182 0 9 313 12 1530 12 1286 0 1530 -2 1530 -14 0 -32
73 -156 116 -195 42 -39 153 -101 182 -101 9 0 12 -43 12 -180 0 -179 0 -181
25 -205 32 -33 78 -33 110 0 l25 24 0 231 0 231 -25 24 c-15 16 -35 25 -56 25
-122 0 -239 117 -239 239 0 21 -9 41 -25 56 l-24 25 -1631 0 -1631 0 -24 -25z"/>
<path d="M2201 3344 c-253 -68 -410 -331 -346 -579 62 -237 291 -393 529 -358
213 30 379 195 409 407 48 333 -269 617 -592 530z m250 -173 c69 -33 112 -74
150 -143 31 -57 34 -70 34 -148 0 -79 -3 -90 -36 -150 -154 -280 -571 -191
-597 127 -11 144 76 275 218 327 60 22 170 15 231 -13z"/>
<path d="M985 2935 c-16 -15 -25 -36 -25 -55 0 -19 9 -40 25 -55 24 -25 26
-25 215 -25 189 0 191 0 215 25 16 15 25 36 25 55 0 19 -9 40 -25 55 -24 25
-26 25 -215 25 -189 0 -191 0 -215 -25z"/>
<path d="M3225 2935 c-16 -15 -25 -36 -25 -55 0 -19 9 -40 25 -55 24 -25 26
-25 215 -25 189 0 191 0 215 25 16 15 25 36 25 55 0 19 -9 40 -25 55 -24 25
-26 25 -215 25 -189 0 -191 0 -215 -25z"/>
<path d="M4185 2868 c-248 -28 -423 -108 -479 -219 -26 -53 -26 -55 -26 -282
0 -214 -1 -229 -17 -222 -138 58 -272 84 -473 92 -386 15 -687 -75 -764 -228
l-26 -53 0 -356 0 -356 26 -52 c77 -154 377 -244 764 -229 236 10 395 46 513
118 l62 37 30 -24 c204 -155 834 -181 1127 -46 95 44 142 83 172 143 l26 53 0
676 0 676 -26 52 c-30 61 -78 102 -169 143 -166 75 -474 107 -740 77z m435
-163 c192 -26 340 -89 340 -145 0 -21 -34 -52 -85 -78 -217 -108 -733 -108
-950 0 -51 26 -85 57 -85 78 0 35 79 84 185 116 145 42 405 55 595 29z m-679
-401 c122 -44 236 -58 459 -58 255 0 379 20 543 89 15 6 17 0 17 -52 0 -67
-13 -84 -85 -121 -217 -108 -733 -108 -950 0 -72 37 -85 54 -85 121 0 52 2 58
18 52 9 -4 46 -18 83 -31z m-601 -239 c192 -26 340 -89 340 -145 0 -21 -34
-52 -85 -78 -217 -108 -733 -108 -950 0 -51 26 -85 57 -85 78 0 35 79 84 185
116 145 42 405 55 595 29z m601 -81 c122 -44 236 -58 459 -58 255 0 379 20
543 89 15 6 17 0 17 -52 0 -67 -13 -84 -85 -121 -217 -108 -733 -108 -950 0
-72 37 -85 54 -85 121 0 52 2 58 18 52 9 -4 46 -18 83 -31z m-1280 -320 c122
-44 236 -58 459 -58 255 0 379 20 543 89 15 6 17 0 17 -52 0 -67 -13 -84 -85
-121 -217 -108 -733 -108 -950 0 -72 37 -85 54 -85 121 0 52 2 58 18 52 9 -4
46 -18 83 -31z m1280 0 c122 -44 236 -58 459 -58 255 0 379 20 543 89 15 6 17
0 17 -52 0 -67 -13 -84 -85 -121 -217 -108 -733 -108 -950 0 -72 37 -85 54
-85 121 0 52 2 58 18 52 9 -4 46 -18 83 -31z m-1280 -320 c122 -44 236 -58
459 -58 255 0 379 20 543 89 15 6 17 0 17 -52 0 -67 -13 -84 -85 -121 -217
-108 -733 -108 -950 0 -72 37 -85 54 -85 121 0 52 2 58 18 52 9 -4 46 -18 83
-31z m1280 0 c122 -44 236 -58 459 -58 255 0 379 20 543 89 15 6 17 0 17 -52
0 -67 -13 -84 -85 -121 -217 -108 -733 -108 -950 0 -72 37 -85 54 -85 121 0
52 2 58 18 52 9 -4 46 -18 83 -31z"/>
</g>
</svg>
